# xmcd CD database file
#
# Track frame offsets:
#	150
#	34858
#	65474
#	93046
#	112908
#	139875
#	171721
#	226067
#	249811
#	269582
#	300925
#	335425
#
# Disc length: 4786 seconds
#
# Revision: 0
# Processed by: cddbd v1.5.2PL0 Copyright (c) Steve Scherf et al.
# Submitted via: CDex 1.70beta2
#
DISCID=9a12b00c
DTITLE=Erling Kroner New Music Orchestra - Tango Jalousie and all that Jazz
DYEAR=2005
DGENRE=Jazz
TTITLE0=Theloneliest
TTITLE1=Milonga del angel
TTITLE2=Gossip
TTITLE3=Tango Jalousie
TTITLE4=Open letter to Jimmy Knepper
TTITLE5=Smokin Henry
TTITLE6=Adios Nonino
TTITLE7=Walking on solid grounds
TTITLE8=Dance of the hip hips
TTITLE9=Back-Alley Sue
TTITLE10=Pachanga Onetti
TTITLE11=Sueno con silla en el cielo
EXTD=YEAR: 2005
EXTT0=
EXTT1=
EXTT2=
EXTT3=
EXTT4=
EXTT5=
EXTT6=
EXTT7=
EXTT8=
EXTT9=
EXTT10=
EXTT11=
PLAYORDER=
